<svg xmlns="http://www.w3.org/2000/svg" width="1338" height="765" viewBox="0 0 1338 765">
    <g fill="none" fill-rule="evenodd">
        <path fill="#5952E4" d="M491.5 66c7.456 0 13.5 6.044 13.5 13.5S498.956 93 491.5 93 478 86.956 478 79.5 484.044 66 491.5 66zM485 76.953v8.528L489.643 88v-8.627L485 76.953zm13 0l-4.643 2.18v2.655l4.643 2.53v-7.365zM493.06 73l-6.668 3.107 4.932 2.687L498 75.695 493.06 73z"/>
        <path fill="#EEEFF6" d="M1266 592c13.255 0 24 10.745 24 24s-10.745 24-24 24-24-10.745-24-24 10.745-24 24-24zm-11 19.115v15.351l8.214 4.534v-15.528l-8.214-4.357zm23 0l-8.214 3.925v4.78l8.214 4.552v-13.257zm-8.74-7.115l-11.797 5.593 8.725 4.836 11.812-5.577-8.74-4.852z"/>
        <path fill="#5952E4" fill-rule="nonzero" d="M132.5 259c16.292 0 29.5 13.208 29.5 29.5S148.792 318 132.5 318 103 304.792 103 288.5s13.208-29.5 29.5-29.5zm1.851 44.628c-1.026 0-1.859.886-1.859 1.98 0 .525.196 1.029.545 1.4.348.372.821.58 1.314.58.494 0 .967-.208 1.315-.58.349-.371.545-.875.545-1.4 0-.525-.196-1.029-.545-1.4a1.804 1.804 0 0 0-1.315-.58zm-6.504.278c-.821 0-1.487.71-1.487 1.585 0 .874.666 1.584 1.487 1.584.822 0 1.487-.71 1.487-1.584 0-.875-.665-1.585-1.487-1.585zm14.566-2.433a2.12 2.12 0 0 0-1.113.319c-1.067.655-1.432 2.109-.816 3.245.414.762 1.164 1.188 1.935 1.188.378 0 .761-.101 1.113-.317 1.067-.656 1.432-2.11.816-3.247-.414-.762-1.164-1.188-1.935-1.188zm0 1.584c.27 0 .512.149.646.398.206.377.084.862-.271 1.081a.698.698 0 0 1-.37.107.732.732 0 0 1-.646-.396c-.205-.379-.083-.863.272-1.082a.682.682 0 0 1 .37-.108zm-11.718-1.816c-.821 0-1.487.71-1.487 1.584 0 .875.666 1.584 1.487 1.584.822 0 1.488-.71 1.488-1.584 0-.875-.666-1.584-1.488-1.584zm6.777-1.361c-1.027 0-1.86.886-1.86 1.98 0 1.093.833 1.98 1.86 1.98 1.026 0 1.859-.887 1.859-1.98 0-1.094-.833-1.98-1.86-1.98zm-12.06.922c-.718 0-1.3.62-1.3 1.386 0 .367.136.72.38.98s.575.406.92.406c.72 0 1.302-.62 1.302-1.386 0-.766-.583-1.386-1.301-1.386zm2.942-2.496c-.719 0-1.301.62-1.301 1.386 0 .766.582 1.386 1.301 1.386s1.301-.62 1.301-1.386c0-.765-.582-1.386-1.301-1.386zm5.463-.813c-.822 0-1.487.709-1.487 1.584 0 .875.665 1.584 1.487 1.584.821 0 1.487-.71 1.487-1.584 0-.875-.666-1.584-1.487-1.584zm-10.01.148c-.616 0-1.115.532-1.115 1.188 0 .656.5 1.188 1.116 1.188.616 0 1.115-.532 1.115-1.188 0-.656-.5-1.188-1.115-1.188zm14.917-.845c-.411 0-.744.355-.744.792 0 .438.333.792.744.792.41 0 .743-.354.743-.792 0-.437-.333-.792-.743-.792zm2.032-.58c-.411 0-.744.355-.744.792 0 .438.333.792.744.792.41 0 .743-.354.743-.792 0-.437-.333-.792-.743-.792zm-13.914-.897c-.616 0-1.116.532-1.116 1.188 0 .656.5 1.188 1.116 1.188.616 0 1.115-.532 1.115-1.188 0-.656-.499-1.188-1.115-1.188zm4.632-.761c-.719 0-1.301.62-1.301 1.386 0 .765.582 1.386 1.301 1.386.345 0 .676-.146.92-.406s.381-.612.381-.98c0-.766-.582-1.386-1.301-1.386zm-8.51-.056c-.616 0-1.116.532-1.116 1.188 0 .656.5 1.188 1.116 1.188.616 0 1.115-.532 1.115-1.188 0-.656-.5-1.188-1.115-1.188zm19.873-.145c-.616 0-1.115.532-1.115 1.188 0 .656.5 1.188 1.115 1.188.616 0 1.116-.532 1.116-1.188 0-.656-.5-1.188-1.116-1.188zm-6.064-.1c-.514 0-.93.442-.93.99 0 .546.416.99.93.99.513 0 .93-.444.93-.99 0-.263-.098-.515-.273-.7a.902.902 0 0 0-.657-.29zm2.658-1.438c-.565 0-1.023.488-1.023 1.09 0 .6.458 1.088 1.023 1.088s1.023-.487 1.023-1.089c0-.601-.458-1.089-1.023-1.089zm-13.433-.541c-.565 0-1.023.487-1.023 1.089 0 .601.458 1.089 1.023 1.089s1.023-.488 1.023-1.09c0-.6-.458-1.088-1.023-1.088zm18.972-.27c-.617 0-1.116.532-1.116 1.188 0 .657.5 1.189 1.116 1.189.616 0 1.115-.532 1.115-1.189 0-.656-.5-1.188-1.115-1.188zm-10.148-.292c-.616 0-1.115.532-1.115 1.188 0 .656.499 1.188 1.115 1.188s1.116-.532 1.116-1.188c0-.656-.5-1.188-1.116-1.188zm-4.86-.145c-.616 0-1.116.532-1.116 1.188 0 .656.5 1.188 1.116 1.188.616 0 1.115-.532 1.115-1.188 0-.656-.499-1.188-1.115-1.188zm-7.148.676c-.41 0-.744.354-.744.792 0 .437.333.792.744.792.41 0 .744-.355.744-.792 0-.438-.333-.792-.744-.792zm-7.171-3.668c-1.232 0-2.231 1.063-2.231 2.376 0 1.312.999 2.376 2.23 2.376 1.233 0 2.232-1.064 2.232-2.376 0-1.313-.999-2.376-2.231-2.376zm25.92 1.793c-.616 0-1.115.532-1.115 1.188 0 .656.5 1.188 1.115 1.188.616 0 1.116-.532 1.116-1.188 0-.656-.5-1.188-1.116-1.188zm-25.92-.21c.41 0 .744.356.744.793 0 .436-.334.792-.744.792s-.744-.356-.744-.792c0-.437.334-.792.744-.792zm21.311-.794c-.616 0-1.115.532-1.115 1.188 0 .656.5 1.188 1.115 1.188.617 0 1.116-.532 1.116-1.188 0-.656-.5-1.188-1.116-1.188zm-13.595.714c-.411 0-.744.355-.744.792 0 .438.333.792.744.792.41 0 .743-.354.743-.792 0-.437-.333-.792-.743-.792zm23.537-1.43c-.72 0-1.302.62-1.302 1.385 0 .766.583 1.387 1.302 1.387.718 0 1.301-.621 1.301-1.387 0-.765-.583-1.386-1.301-1.386zm-20.657.604c-.513 0-.93.444-.93.99 0 .547.417.99.93.99.514 0 .93-.443.93-.99 0-.546-.416-.99-.93-.99zm2.879-.826c-.616 0-1.116.532-1.116 1.188 0 .656.5 1.188 1.116 1.188.616 0 1.116-.532 1.116-1.188 0-.656-.5-1.188-1.116-1.188zm14.278-1.244c-.718 0-1.301.621-1.301 1.386 0 .368.137.72.381.98s.575.407.92.407c.72 0 1.302-.621 1.302-1.387 0-.765-.583-1.386-1.302-1.386zm-22.92-1.776c-1.026 0-1.858.887-1.858 1.98 0 1.094.832 1.98 1.859 1.98.493 0 .966-.208 1.315-.58.348-.37.544-.874.544-1.4 0-.525-.196-1.028-.544-1.4a1.804 1.804 0 0 0-1.315-.58zm18.313.772c-.719 0-1.301.621-1.301 1.386 0 .766.582 1.387 1.301 1.387s1.301-.621 1.301-1.387c0-.765-.582-1.386-1.301-1.386zm9.577-1.627c-.822 0-1.488.71-1.488 1.584 0 .875.666 1.584 1.488 1.584.821 0 1.487-.71 1.487-1.584 0-.875-.666-1.584-1.487-1.584zm-13.759.063c-.616 0-1.115.532-1.115 1.188 0 .657.499 1.189 1.115 1.189s1.116-.532 1.116-1.189c0-.656-.5-1.188-1.116-1.188zm-10.04-.792c-.821 0-1.487.71-1.487 1.584 0 .875.666 1.585 1.487 1.585.822 0 1.488-.71 1.488-1.585 0-.874-.666-1.584-1.488-1.584zm20.206-.566c-.821 0-1.487.71-1.487 1.584 0 .875.666 1.584 1.487 1.584.822 0 1.488-.709 1.488-1.584 0-.875-.666-1.584-1.488-1.584zm-13.14.566c-.617 0-1.116.532-1.116 1.188 0 .657.5 1.188 1.115 1.188.616 0 1.116-.531 1.116-1.188 0-.656-.5-1.188-1.116-1.188zm-3.347-.396c-.72 0-1.302.62-1.302 1.386 0 .766.583 1.386 1.302 1.386.345 0 .676-.146.92-.406s.381-.612.381-.98c0-.765-.583-1.386-1.301-1.386zm11.879-1.174c-.822 0-1.488.71-1.488 1.584 0 .875.666 1.584 1.488 1.584.821 0 1.487-.709 1.487-1.584 0-.875-.666-1.584-1.487-1.584zm-21.176-1.598c-1.026 0-1.859.887-1.859 1.98 0 1.094.833 1.98 1.86 1.98 1.026 0 1.859-.886 1.859-1.98 0-1.093-.833-1.98-1.86-1.98zm16.548 1.188c-.514 0-.93.443-.93.99 0 .547.416.99.93.99.513 0 .93-.443.93-.99 0-.547-.417-.99-.93-.99zm-12.457-2.772c-.822 0-1.488.71-1.488 1.584 0 .875.666 1.584 1.488 1.584.821 0 1.487-.71 1.487-1.584 0-.875-.666-1.584-1.487-1.584zm10.04.891c-.565 0-1.023.488-1.023 1.09 0 .6.458 1.088 1.023 1.088s1.022-.487 1.022-1.089c0-.601-.457-1.089-1.022-1.089zm12.088-1.863c-1.027 0-1.86.887-1.86 1.98 0 1.094.833 1.98 1.86 1.98.493 0 .966-.208 1.314-.58.35-.37.545-.874.545-1.4 0-1.093-.832-1.98-1.86-1.98zm-15.063.972c-.616 0-1.116.532-1.116 1.188 0 .656.5 1.188 1.116 1.188.616 0 1.116-.532 1.116-1.188 0-.656-.5-1.188-1.116-1.188zm-3.347-.396c-.718 0-1.301.62-1.301 1.386 0 .766.583 1.386 1.301 1.386.72 0 1.302-.62 1.302-1.386 0-.766-.583-1.386-1.302-1.386zm13.802-1.58c-1.027 0-1.859.887-1.859 1.98 0 1.094.832 1.98 1.86 1.98 1.026 0 1.859-.886 1.859-1.98 0-1.093-.833-1.98-1.86-1.98zm-4.134 1.976c-.41 0-.743.355-.743.792 0 .437.333.792.743.792.411 0 .744-.355.744-.792 0-.437-.333-.792-.744-.792zm-1.487-1.584c-.41 0-.744.354-.744.792 0 .437.333.792.744.792.41 0 .744-.355.744-.792 0-.438-.333-.792-.744-.792zm-2.231-1.584c-.616 0-1.116.532-1.116 1.188 0 .656.5 1.188 1.116 1.188.616 0 1.115-.532 1.115-1.188 0-.656-.499-1.188-1.115-1.188zm-10.412-.792c-.821 0-1.487.709-1.487 1.584 0 .875.666 1.584 1.487 1.584.822 0 1.488-.71 1.488-1.584 0-.875-.666-1.584-1.488-1.584zm7.437 0c-.616 0-1.115.532-1.115 1.188 0 .656.499 1.188 1.115 1.188s1.116-.532 1.116-1.188c0-.656-.5-1.188-1.116-1.188zm-3.532-.396c-.72 0-1.302.62-1.302 1.386 0 .765.583 1.386 1.302 1.386.718 0 1.301-.62 1.301-1.386 0-.766-.583-1.386-1.301-1.386zm12.764-3.57c-.77 0-1.52.425-1.934 1.187-.616 1.137-.251 2.59.816 3.246.351.216.736.318 1.114.318.771 0 1.521-.426 1.935-1.188.616-1.136.25-2.59-.818-3.245a2.112 2.112 0 0 0-1.113-.319zm0 1.583c.13 0 .254.036.37.107a.787.787 0 0 1 .347.48c.03.118.06.354-.075.601a.732.732 0 0 1-.646.396.7.7 0 0 1-.37-.106.784.784 0 0 1-.346-.48.837.837 0 0 1 .074-.602.732.732 0 0 1 .646-.396zM1310.42 382.615c1.868-7.501 9.466-12.066 16.965-10.196 7.5 1.87 12.065 9.468 10.196 16.967-1.87 7.501-9.467 12.065-16.968 10.195-7.5-1.87-12.065-9.467-10.194-16.966zm13.004-5.736l-.63 2.522c-.335-.077-.663-.152-.981-.231l.001-.008-2.118-.529-.409 1.64s1.14.262 1.116.278c.623.155.734.567.716.894l-1.724 6.913c-.076.189-.269.472-.704.365.015.022-1.116-.28-1.116-.28l-.763 1.759 2 .498c.371.093.735.19 1.095.282l-.636 2.553 1.534.382.63-2.525c.419.113.826.218 1.224.317l-.628 2.514 1.537.383.635-2.548c2.62.496 4.589.296 5.418-2.073.669-1.907-.033-3.007-1.411-3.725 1.003-.23 1.759-.891 1.96-2.255l.024-.19c.156-1.741-1.23-2.697-3.1-3.342l.628-2.523-1.536-.383-.613 2.457c-.404-.1-.819-.195-1.23-.29l.616-2.473-1.535-.382zm-.6 9.121c1.017.267 4.278.796 3.794 2.84-.464 1.961-3.6.901-4.618.635zm1.27-4.667c.862.207 3.64.593 3.19 2.326-.43 1.66-3.089.816-3.95.61zM.27 187.824a8.997 8.997 0 0 1 10.906-6.555A8.999 8.999 0 1 1 .27 187.823zm8.36-3.688l-.405 1.622c-.215-.05-.426-.098-.63-.149v-.005l-1.362-.34-.263 1.055s.733.168.717.178c.4.1.473.365.46.575l-1.108 4.444c-.048.121-.172.303-.452.234.01.015-.718-.179-.718-.179l-.49 1.13 1.285.32c.24.06.474.123.705.182l-.41 1.64.987.247.405-1.624c.27.073.531.14.787.204l-.404 1.616.988.246.409-1.638c1.684.32 2.95.19 3.483-1.332.43-1.226-.022-1.934-.908-2.395.645-.148 1.131-.573 1.261-1.45l.018-.16c.077-1.095-.807-1.7-1.996-2.11l.404-1.622-.988-.246-.394 1.58c-.26-.065-.526-.126-.791-.187l.397-1.59-.987-.246zM8.244 190c.654.172 2.75.512 2.439 1.826-.298 1.26-2.315.58-2.969.408zm.817-3c.554.133 2.34.381 2.05 1.495-.276 1.067-1.985.525-2.54.392z"/>
        <path fill="#5952E4" d="M789 106c13.807 0 25 11.193 25 25s-11.193 25-25 25-25-11.193-25-25 11.193-25 25-25zm-13.235 29.412l11.764 16.176v-9.48l-11.764-6.696zm25 0L789 142.107v9.481l11.765-16.176zm-13.236-8.824l-11.764 5.034 11.764 6.73v-11.764zm1.471 0v11.765l11.765-6.728L789 126.588zm-1.47-16.176l-11.765 19.117 11.764-4.984v-14.133zm1.47 0v14.083l11.765 5.034L789 110.412z"/>
        <path fill="#5952E4" fill-rule="nonzero" d="M867.51 423.89c2.269-9.109 11.494-14.652 20.6-12.381 9.108 2.27 14.651 11.496 12.382 20.603-2.271 9.108-11.496 14.65-20.605 12.38-9.107-2.272-14.65-11.496-12.378-20.603zm16.445 5.11a5.708 5.708 0 0 0-4.147 1.787l-4.24 4.507a.416.416 0 0 0-.078.454c.067.153.22.252.39.252h2.271c.394 0 .77-.162 1.037-.446l2.63-2.798a2.95 2.95 0 0 1 1.79-.94 2.835 2.835 0 0 1 2.42.875l2.69 2.863c.269.285.646.447 1.04.446h2.273c.168 0 .32-.1.388-.252a.416.416 0 0 0-.078-.453l-4.24-4.508a5.71 5.71 0 0 0-4.146-1.787zm-5.804-9h-2.272c-.169 0-.322.1-.39.252a.416.416 0 0 0 .08.454l4.239 4.507a5.708 5.708 0 0 0 8.294 0l4.24-4.508a.416.416 0 0 0 .077-.453.425.425 0 0 0-.388-.252h-2.272a1.423 1.423 0 0 0-1.04.446l-2.69 2.863a2.835 2.835 0 0 1-2.422.875 2.95 2.95 0 0 1-1.79-.94l-2.629-2.798a1.423 1.423 0 0 0-1.037-.446z"/>
        <path fill="#EEEFF6" fill-rule="nonzero" d="M867 600c5.523 0 10 4.477 10 10s-4.477 10-10 10a9.953 9.953 0 0 1-5.386-1.573.194.194 0 0 0 .03-.034l1.096-1.527a.2.2 0 0 0-.323-.232l-1.096 1.527a.202.202 0 0 0-.026.052 10.116 10.116 0 0 1-.418-.307l1.388-1.948a.2.2 0 1 0-.325-.231l-1.373 1.929A9.978 9.978 0 0 1 857 610c0-5.523 4.477-10 10-10zm4.254 4.124s-1.693-.116-3.11.647c-1.416.764-1.953 1.738-2.218 2.186-.266.448-.82 1.405-.82 1.405s-1.21-.022-2.168.51c-.957.53-1.544 1.526-1.544 1.526s.637-.182 1.245-.166c.609.017 1.217.271 1.217.271s-.143.216-.116.531c.012.139.198.336.452.55-.04.053-.079.106-.117.16-.909 1.284-1.116 2.699-.463 3.161.652.462 1.918-.204 2.827-1.488.029-.04.057-.082.084-.123.232.146.43.242.554.236.326-.017.608-.36.608-.36s.622.788.78 1.187c.158.398.216 1.112.216 1.112s.697-.822.917-2.035c.22-1.214-.32-2.073-.32-2.073s.615-.753 1.245-1.516c.631-.764 1.184-1.782 1.184-3.11 0-1.327-.453-2.61-.453-2.61zm-6.677 7.763c.243.182.501.363.718.52.285.207.627.473.942.694l-.013.018c-.602.815-1.46 1.202-1.917.864-.457-.337-.34-1.271.263-2.086l.007-.01zm3.95-5.655a1.355 1.355 0 1 1 0 2.71 1.355 1.355 0 0 1 0-2.71zM1053.51 554.89c2.269-9.109 11.494-14.652 20.6-12.381 9.108 2.27 14.651 11.496 12.382 20.603-2.271 9.108-11.496 14.65-20.605 12.38-9.107-2.272-14.65-11.496-12.378-20.603zm18.008-4.89h-3.851l-2.069 10.097-2.108 1.484-.49 2.77 2.016-1.413-1.037 5.062h12.336l.685-3.382h-8.485l.992-4.829 5.013-3.514.587-2.87-5.013 3.528 1.424-6.933z"/>
        <path fill="#5952E4" fill-rule="nonzero" d="M703 317c5.523 0 10 4.477 10 10s-4.477 10-10 10-10-4.477-10-10 4.477-10 10-10zm4.715 4.778h-9.531v2.56h3.485v1.236c-2.74.16-4.79.796-4.79 1.559 0 .763 2.05 1.4 4.79 1.559v4.417h2.56v-4.411c2.792-.149 4.893-.793 4.893-1.565 0-.772-2.1-1.416-4.893-1.565v-1.23h3.486v-2.56zm-3.486 4.07c2.404.106 4.197.518 4.197 1.01 0 .572-2.43 1.036-5.426 1.036s-5.425-.464-5.425-1.037c0-.484 1.741-.891 4.094-1.004v1.487a23.98 23.98 0 0 0 2.56.006zM1187 244c-5.523 0-10 4.477-10 10s4.477 10 10 10 10-4.477 10-10-4.477-10-10-10zm-5.012 9.243h3.992l-.462 1.501h-3.991l.461-1.501zm10.342-.708a76.783 76.783 0 0 1-.887 2.905c-.211.61-.602 1.123-1.103 1.416-.5.293-.687.416-1.387.416h-7.164l.505-1.635h6.737l1.007-3.273h-6.684l.504-1.635h7.46c.341 0 .793.158 1.012.585.22.427.16.647 0 1.22z"/>
        <path fill="#EEEFF6" d="M983 745c5.523 0 10 4.477 10 10s-4.477 10-10 10-10-4.477-10-10 4.477-10 10-10zm.085 3.676h-.018l-.102.009a.622.622 0 0 0-.415.259l-2.478 3.427-.052.082a.665.665 0 0 0-.064.176l-1.2 5.552-.002.015-.008.014a.683.683 0 0 0 .01.278.73.73 0 0 0 .049.128.778.778 0 0 0 .233.266l3.687 2.341.082.045a.642.642 0 0 0 .269.056l.09-.008a.7.7 0 0 0 .252-.093l3.578-2.271.195-.14.056-.054a.843.843 0 0 0 .09-.132.637.637 0 0 0 .05-.138.6.6 0 0 0 .02-.258c0-.02-.01-.039-.01-.049l-1.2-5.543-.026-.095a.652.652 0 0 0-.092-.172l-2.477-3.427-.064-.079a.631.631 0 0 0-.453-.189zm-.009.464c.02 0 .038 0 .059.01l.058.03c.01.01.03.02.04.04l2.486 3.428.03.079 1.18 5.493.021.048c.016.05.01.106-.013.15a.306.306 0 0 1-.107.089l-3.648 2.322-.019.013-.019.006c-.03.01-.049.01-.068.01-.03 0-.049 0-.069-.01-.009-.01-.028-.01-.039-.02l-3.676-2.34-.038-.036-.03-.044c-.01-.01-.02-.02-.02-.04v-.088l1.2-5.553.02-.048v-.011l.009-.007.01-.013 2.477-3.429.02-.023.018-.015.06-.03c.019-.01.039-.01.058-.01zm3.012 9.39h-2.122l-.525 1.617 2.647-1.618zm-3.907 0h-2.122l2.647 1.617-.525-1.618zm1.26 0h-.882L983 760l.441-1.47zm-.367-6.471l-1.545 2.845.964 3.184h1.162l.963-3.175-1.544-2.854zm-1.947 3.382l-1.51 2.647h2.354l-.844-2.647zm3.745 0l-.843 2.647h2.353l-1.51-2.647zm-4.21-1.912l-.75 3.53 1.176-2.138-.427-1.392zm4.828 0l-.431 1.394 1.176 2.136-.745-3.53zm-2.637-3.676l-2.059 2.886.515 1.673 1.544-2.788v-1.771zm.441 0v1.775l1.544 2.784.515-1.667-2.059-2.892z"/>
        <path fill="#5952E4" d="M345 0c9.389 0 17 7.611 17 17s-7.611 17-17 17-17-7.611-17-17 7.611-17 17-17zm.52 6h-.032l-.132.008c-.304.037-.585.2-.76.457l-4.286 5.962-.068.106a1.17 1.17 0 0 0-.132.342l-2.075 9.659v.017a.051.051 0 0 1-.017.033c-.033.155-.016.328.017.483.016.067.052.154.085.224.102.188.236.341.404.462l6.373 4.072.113.065c.154.076.315.11.478.11h.016l.123-.008c.166-.021.332-.083.468-.167l6.187-3.951.337-.242.095-.095c.06-.07.112-.15.158-.23.033-.069.066-.154.085-.24.05-.155.05-.292.034-.448 0-.035-.017-.068-.017-.085l-2.075-9.643-.031-.125a1.135 1.135 0 0 0-.172-.339l-4.282-5.962-.081-.105a1.086 1.086 0 0 0-.812-.36zm-.016.807c.034 0 .066 0 .102.017.034.019.066.035.101.053.017.017.05.034.067.067l4.299 5.965.026.07.026.067 2.039 9.556.033.066a.356.356 0 0 1-.018.278.53.53 0 0 1-.184.154l-6.307 4.039-.02.017a.1.1 0 0 1-.046.018c-.052.017-.085.017-.118.017-.05 0-.084 0-.119-.017-.015-.018-.049-.018-.067-.035l-6.355-4.072-.046-.04c-.028-.03-.05-.064-.071-.099-.018-.016-.036-.033-.036-.069v-.154l2.074-9.66.017-.042.017-.04v-.02l.012-.005c.006-.007.01-.018.023-.029l4.282-5.965.02-.028c.017-.016.035-.028.046-.04.035-.017.069-.033.102-.052.033-.017.068-.017.101-.017zm5.208 16.333h-3.669l-.907 2.813 4.576-2.813zm-6.755 0h-3.669l4.576 2.813-.907-2.813zm2.179 0h-1.526l.763 2.558.763-2.558zm-.636-11.256l-2.67 4.95 1.666 5.538h2.01l1.663-5.523-2.669-4.965zm-3.365 5.883l-2.61 4.605h4.068l-1.458-4.605zm6.474 0l-1.456 4.605h4.067l-2.61-4.605zm-7.28-3.325l-1.295 6.14 2.034-3.72-.738-2.42zm8.348 0l-.745 2.424 2.034 3.715-1.29-6.14zm-4.558-6.395l-3.56 5.02.89 2.91 2.67-4.849V8.047zm.762 0v3.088l2.67 4.842.89-2.899-3.56-5.031z"/>
    </g>
</svg>
