<svg xmlns="http://www.w3.org/2000/svg" width="716" height="43" viewBox="0 0 716 43">
    <g fill="#FFF" fill-rule="evenodd">
        <path d="M276 0h3v3h-3zM299 0h3v3h-3zM322 0h3v3h-3zM345 0h3v3h-3zM368 0h3v3h-3zM391 0h3v3h-3zM414 0h3v3h-3zM437 0h3v3h-3zM460 0h3v3h-3zM483 0h3v3h-3zM276 20h3v3h-3zM299 20h3v3h-3zM322 20h3v3h-3zM345 20h3v3h-3zM368 20h3v3h-3zM391 20h3v3h-3zM414 20h3v3h-3zM437 20h3v3h-3zM460 20h3v3h-3zM483 20h3v3h-3zM276 40h3v3h-3zM299 40h3v3h-3zM322 40h3v3h-3zM345 40h3v3h-3zM368 40h3v3h-3zM391 40h3v3h-3zM414 40h3v3h-3zM437 40h3v3h-3zM460 40h3v3h-3zM483 40h3v3h-3z"/>
        <g>
            <path d="M506 0h3v3h-3zM529 0h3v3h-3zM552 0h3v3h-3zM575 0h3v3h-3zM598 0h3v3h-3zM621 0h3v3h-3zM644 0h3v3h-3zM667 0h3v3h-3zM690 0h3v3h-3zM713 0h3v3h-3zM506 20h3v3h-3zM529 20h3v3h-3zM552 20h3v3h-3zM575 20h3v3h-3zM598 20h3v3h-3zM621 20h3v3h-3zM644 20h3v3h-3zM667 20h3v3h-3zM690 20h3v3h-3zM713 20h3v3h-3zM506 40h3v3h-3zM529 40h3v3h-3zM552 40h3v3h-3zM575 40h3v3h-3zM598 40h3v3h-3zM621 40h3v3h-3zM644 40h3v3h-3zM667 40h3v3h-3zM690 40h3v3h-3zM713 40h3v3h-3z"/>
        </g>
        <g>
            <path d="M0 0h3v3H0zM23 0h3v3h-3zM46 0h3v3h-3zM69 0h3v3h-3zM92 0h3v3h-3zM115 0h3v3h-3zM138 0h3v3h-3zM161 0h3v3h-3zM184 0h3v3h-3zM207 0h3v3h-3zM230 0h3v3h-3zM253 0h3v3h-3zM0 20h3v3H0zM23 20h3v3h-3zM46 20h3v3h-3zM69 20h3v3h-3zM92 20h3v3h-3zM115 20h3v3h-3zM138 20h3v3h-3zM161 20h3v3h-3zM184 20h3v3h-3zM207 20h3v3h-3zM230 20h3v3h-3zM253 20h3v3h-3zM0 40h3v3H0zM23 40h3v3h-3zM46 40h3v3h-3zM69 40h3v3h-3zM92 40h3v3h-3zM115 40h3v3h-3zM138 40h3v3h-3zM161 40h3v3h-3zM184 40h3v3h-3zM207 40h3v3h-3zM230 40h3v3h-3zM253 40h3v3h-3z"/>
        </g>
    </g>
</svg>
