<svg xmlns="http://www.w3.org/2000/svg" width="150" height="28" viewBox="0 0 150 28">
    <g fill="none" fill-rule="evenodd">
        <rect width="150" height="28" fill="#00BDFF" rx="3"/>
        <path fill="#FFF" fill-rule="nonzero" d="M25 9.66c-.637.288-1.275.505-1.983.577.708-.433 1.275-1.155 1.558-1.948-.708.433-1.417.721-2.196.866A3.401 3.401 0 0 0 19.83 8c-1.912 0-3.47 1.588-3.47 3.536 0 .289 0 .577.07.794-2.975-.144-5.525-1.588-7.225-3.753a3.303 3.303 0 0 0-.496 1.804c0 1.227.638 2.31 1.559 2.96-.567 0-1.134-.145-1.559-.434v.072c0 1.732 1.204 3.176 2.763 3.464-.284.072-.567.145-.921.145-.213 0-.425 0-.638-.073.425 1.444 1.7 2.454 3.259 2.454-1.204.938-2.692 1.516-4.321 1.516-.283 0-.567 0-.85-.073A9.783 9.783 0 0 0 13.313 22c6.445 0 9.916-5.412 9.916-10.103v-.433c.709-.505 1.275-1.155 1.771-1.804z"/>
        <text fill="#FFF" font-family="Graphik-Medium, Graphik" font-size="12" font-weight="400">
            <tspan x="36" y="19">Follow @tomyacom</tspan>
        </text>
    </g>
</svg>
